<svg width="12" height="10" viewBox="0 0 12 10" fill="none" xmlns="http://www.w3.org/2000/svg">
<path d="M10.7656 6.03906L7.01562 9.78906C6.875 9.92969 6.6875 10 6.5 10C6.28906 10 6.10156 9.92969 5.96094 9.78906C5.65625 9.50781 5.65625 9.01562 5.96094 8.73438L8.42188 6.25H1.25C0.828125 6.25 0.5 5.92188 0.5 5.5C0.5 5.10156 0.828125 4.75 1.25 4.75H8.42188L5.96094 2.28906C5.65625 2.00781 5.65625 1.51562 5.96094 1.23438C6.24219 0.929688 6.73438 0.929688 7.01562 1.23438L10.7656 4.98438C11.0703 5.26562 11.0703 5.75781 10.7656 6.03906Z" fill="#DF5854"/>
</svg>
