<svg width="20" height="23" viewBox="0 0 20 23" fill="none" xmlns="http://www.w3.org/2000/svg">
<path d="M6.53125 1.78149V3.50024H12.7188V1.78149C12.7188 1.2229 13.1484 0.750244 13.75 0.750244C14.3086 0.750244 14.7812 1.2229 14.7812 1.78149V3.50024H16.5C18.0039 3.50024 19.25 4.74634 19.25 6.25024V6.93774V9.00024V20.0002C19.25 21.5471 18.0039 22.7502 16.5 22.7502H2.75C1.20312 22.7502 0 21.5471 0 20.0002V9.00024V6.93774V6.25024C0 4.74634 1.20312 3.50024 2.75 3.50024H4.46875V1.78149C4.46875 1.2229 4.89844 0.750244 5.5 0.750244C6.05859 0.750244 6.53125 1.2229 6.53125 1.78149ZM2.0625 9.00024V20.0002C2.0625 20.387 2.36328 20.6877 2.75 20.6877H16.5C16.8438 20.6877 17.1875 20.387 17.1875 20.0002V9.00024H2.0625Z" fill="#008EB7"/>
</svg>
